<?xml version="1.0" encoding="iso-8859-1"?>
<!DOCTYPE svg PUBLIC "-//W3C//DTD SVG 1.1//EN" "http://www.w3.org/Graphics/SVG/1.1/DTD/svg11.dtd">
<svg version="1.1" id="sprite" 
  xmlns="http://www.w3.org/2000/svg" 
  xmlns:xlink="http://www.w3.org/1999/xlink" x="0px" y="0px" width="21px" height="21px" viewBox="0 0 450 450" xml:space="preserve">

  <g id="facebook">
    <path d="M158.081,83.3c0,10.839,0,59.218,0,59.218h-43.385v72.412h43.385v215.183h89.122V214.936h59.805
		c0,0,5.601-34.721,8.316-72.685c-7.784,0-67.784,0-67.784,0s0-42.127,0-49.511c0-7.4,9.717-17.354,19.321-17.354
		c9.586,0,29.818,0,48.557,0c0-9.859,0-43.924,0-75.385c-25.016,0-53.476,0-66.021,0C155.878-0.004,158.081,72.48,158.081,83.3z"/>
  </g>

  <g id="skype">
    <path d="M415.7,262.093c3.039-14.657,4.564-28.935,4.564-42.826c0-27.218-5.276-53.247-15.844-78.087
		c-10.562-24.838-24.838-46.249-42.825-64.237C343.608,58.955,322.2,44.68,297.361,34.114
		c-24.845-10.559-50.866-15.843-78.088-15.843c-13.894,0-28.171,1.524-42.827,4.57C156.651,7.614,134.381,0,109.637,0
		C79.375,0,53.538,10.705,32.124,32.115c-21.416,21.416-32.12,47.253-32.12,77.516c0,24.744,7.614,47.014,22.839,66.809
		c-3.044,14.655-4.568,28.933-4.568,42.827c0,27.215,5.28,53.243,15.843,78.085c10.562,24.838,24.838,46.25,42.827,64.241
		c17.987,17.986,39.401,32.257,64.239,42.824c24.84,10.564,50.869,15.845,78.087,15.845c13.893,0,28.17-1.526,42.834-4.572
		c19.79,15.229,42.058,22.847,66.804,22.847c30.259,0,56.103-10.711,77.505-32.12c21.416-21.416,32.12-47.253,32.12-77.519
		C438.529,304.158,430.918,281.891,415.7,262.093z M325.472,304.49c-6.276,11.136-14.702,20.033-25.263,26.696
		c-10.567,6.663-22.224,11.748-34.975,15.273c-12.751,3.518-26.073,5.283-39.971,5.283c-32.163,0-59.855-6.235-83.078-18.705
		c-23.223-12.471-34.833-27.453-34.833-44.968c0-8.562,2.428-15.693,7.282-21.408c4.853-5.712,12.038-8.562,21.555-8.562
		c5.52,0,10.657,1.522,15.415,4.564c4.758,3.046,9.135,6.715,13.134,10.999c3.999,4.285,8.326,8.562,12.99,12.847
		c4.661,4.285,10.847,7.946,18.555,10.992c7.71,3.046,16.418,4.572,26.128,4.572c12.371,0,22.36-2.423,29.981-7.275
		c7.61-4.859,11.416-10.999,11.416-18.418c0-7.618-3.042-13.326-9.13-17.132c-4.182-2.673-14.846-6.098-31.977-10.283
		l-41.688-10.284c-11.419-2.662-21.222-5.752-29.408-9.271c-8.186-3.524-15.8-8.134-22.841-13.849
		c-7.039-5.708-12.369-12.891-15.986-21.555c-3.616-8.658-5.424-18.796-5.424-30.406c0-13.896,3.189-26.121,9.563-36.688
		c6.374-10.565,14.849-18.846,25.409-24.841c10.562-5.996,21.935-10.468,34.119-13.418c12.179-2.951,24.742-4.426,37.685-4.426
		c18.276,0,35.589,2.19,51.961,6.567c16.368,4.377,29.882,10.801,40.538,19.271c10.657,8.473,15.985,17.942,15.985,28.409
		c0,8.562-2.707,15.893-8.138,21.982c-5.414,6.088-12.601,9.134-21.55,9.134c-4.948,0-9.514-1.143-13.702-3.427
		c-4.186-2.283-7.99-5.042-11.423-8.278c-3.426-3.234-7.047-6.423-10.852-9.563c-3.806-3.14-8.946-5.852-15.41-8.136
		c-6.479-2.284-13.802-3.427-21.986-3.427c-27.406,0-41.112,7.323-41.112,21.982c0,3.234,0.715,6.09,2.141,8.564
		c1.427,2.474,3,4.473,4.71,5.996c1.709,1.525,4.565,3.046,8.564,4.57c3.999,1.525,7.33,2.622,9.994,3.284
		c2.663,0.666,6.854,1.665,12.562,2.996l29.694,6.851c9.325,2.096,17.648,4.286,24.981,6.567c7.331,2.288,15.181,5.521,23.555,9.71
		c8.374,4.187,15.321,8.848,20.838,13.988c5.523,5.144,10.137,11.656,13.853,19.555c3.714,7.901,5.564,16.61,5.564,26.124
		C334.896,280.84,331.761,293.357,325.472,304.49z"/>
  </g>

  <g id="twitter">
    <path d="M612,116.258c-22.525,9.981-46.694,16.75-72.088,19.772c25.929-15.527,45.777-40.155,55.184-69.411
			c-24.322,14.379-51.169,24.82-79.775,30.48c-22.907-24.437-55.49-39.658-91.63-39.658c-69.334,0-125.551,56.217-125.551,125.513
			c0,9.828,1.109,19.427,3.251,28.606C197.065,206.32,104.556,156.337,42.641,80.386c-10.823,18.51-16.98,40.078-16.98,63.101
			c0,43.559,22.181,81.993,55.835,104.479c-20.575-0.688-39.926-6.348-56.867-15.756v1.568c0,60.806,43.291,111.554,100.693,123.104
			c-10.517,2.83-21.607,4.398-33.08,4.398c-8.107,0-15.947-0.803-23.634-2.333c15.985,49.907,62.336,86.199,117.253,87.194
			c-42.947,33.654-97.099,53.655-155.916,53.655c-10.134,0-20.116-0.612-29.944-1.721c55.567,35.681,121.536,56.485,192.438,56.485
			c230.948,0,357.188-191.291,357.188-357.188l-0.421-16.253C573.872,163.526,595.211,141.422,612,116.258z"/>
  </g>

  <g id="linkedin">
    <rect x="5.424" y="145.895" width="94.216" height="282.932"/>
    <path d="M408.842,171.739c-19.791-21.604-45.967-32.408-78.512-32.408c-11.991,0-22.891,1.475-32.695,4.427
			c-9.801,2.95-18.079,7.089-24.838,12.419c-6.755,5.33-12.135,10.278-16.129,14.844c-3.798,4.337-7.512,9.389-11.136,15.104
			v-40.232h-93.935l0.288,13.706c0.193,9.139,0.288,37.307,0.288,84.508c0,47.205-0.19,108.777-0.572,184.722h93.931V270.942
			c0-9.705,1.041-17.412,3.139-23.127c4-9.712,10.037-17.843,18.131-24.407c8.093-6.572,18.13-9.855,30.125-9.855
			c16.364,0,28.407,5.662,36.117,16.987c7.707,11.324,11.561,26.98,11.561,46.966V428.82h93.931V266.664
			C438.529,224.976,428.639,193.336,408.842,171.739z"/>
    <path d="M53.103,9.708c-15.796,0-28.595,4.619-38.4,13.848C4.899,32.787,0,44.441,0,58.529c0,13.891,4.758,25.505,14.275,34.829
			c9.514,9.325,22.078,13.99,37.685,13.99h0.571c15.99,0,28.887-4.661,38.688-13.99c9.801-9.324,14.606-20.934,14.417-34.829
			c-0.19-14.087-5.047-25.742-14.561-34.973C81.562,14.323,68.9,9.708,53.103,9.708z"/>
  </g>
</svg>